<?xml version="1.0" encoding="utf-8"?>
<!-- Generator: Adobe Illustrator 27.7.0, SVG Export Plug-In . SVG Version: 6.00 Build 0)  -->
<svg version="1.1" xmlns="http://www.w3.org/2000/svg" xmlns:xlink="http://www.w3.org/1999/xlink" x="0px" y="0px"
	 viewBox="0 0 477 477" style="enable-background:new 0 0 477 477;" xml:space="preserve">
<style type="text/css">
	.st0{display:none;fill:url(#SVGID_1_);}
	.st1{fill:url(#SVGID_00000135683776696483410880000013812934643521103802_);}
	.st2{fill:#C36A5A;}
	.st3{fill:url(#SVGID_00000082350896970544659480000001186357642132210308_);}
	.st4{fill:#D5D8DF;}
	.st5{fill:#EAD2C6;}
	.st6{fill:#0E1010;}
	.st7{fill:#E9ECF3;}
	.st8{fill:#6E3639;stroke:#6E3639;stroke-miterlimit:10;}
	.st9{fill:#2B2B2B;}
	.st10{fill:#B3372D;}
	.st11{fill:#AEACB9;}
	.st12{fill:#6E3639;}
	.st13{fill:#8B9570;}
	.st14{fill:#4B3E38;}
	.st15{fill:#CEB0A6;}
	.st16{fill:#E6845F;}
	.st17{fill:#CC6A51;}
	.st18{fill:#986851;}
	.st19{fill:#724935;}
</style>
<g id="hair_x5F_bottom">
	<linearGradient id="SVGID_1_" gradientUnits="userSpaceOnUse" x1="18.2465" y1="222.0794" x2="462.397" y2="222.0794">
		<stop  offset="0" style="stop-color:#E39C68"/>
		<stop  offset="1" style="stop-color:#E68660"/>
	</linearGradient>
	<path class="st0" d="M408.6,57.3c-1.7-2.6-16.8-16.8-16.8-16.8s-29.8-19.1-34.1-22S299.1,6.1,289,5.4C279,4.7,238.2,7.3,225,9.3
		c-13.2,1.9-56.7,39.8-62.6,45.1s-14.2,14.2-21.6,31.4c-7.4,17.3-29.8,112.1-29.8,112.1s-0.5,6.9,0,9.2c0.5,2.3,19.4,37.6,37.9,40.6
		c-2.2-9.6-3-13.1-2.3-17.4c0.4-1.9,3.1-2.3,5.4,2.8c1.6,2.7,14.8,6.8,14.8,6.8S153,250.2,150,252.1c-3,1.8-14.5,8.2-27.4,9.5
		C111.1,261,33.2,240.6,18.8,321c-0.6,13.6-3.8,25.2,16.3,43c-10.7,74.3,42.7,74.9,42.7,74.9s-62.6-62.6,23.4-85.7
		c55.3-5.9,68.4,47.5,73.7,50.4c84.6,75.8,178.1-11.4,179.4-11.3c13.9,0.1,50.7,12.2,87.5-40.1c6.3-9,5-27.8,4.7-36.7
		c-44.2-17.8-47.5-67.7-47.5-67.7s60-29,63.4-40.8C464.7,188.8,410.2,59.9,408.6,57.3z M405.2,320.5c1.7,3.4,22.1,19.4,4.3,43.9
		c-10.4,17.2-35.5,19.7-41.4,15.1C383.9,359.4,385.8,360.4,405.2,320.5z"/>
	
		<linearGradient id="SVGID_00000182529896412389214040000000097604991623633039_" gradientUnits="userSpaceOnUse" x1="332.2371" y1="154.1405" x2="142.9405" y2="482.0117">
		<stop  offset="0" style="stop-color:#E39C68"/>
		<stop  offset="0.1357" style="stop-color:#E49766"/>
		<stop  offset="0.5752" style="stop-color:#E58A62"/>
		<stop  offset="1" style="stop-color:#E68660"/>
	</linearGradient>
	<path style="fill:url(#SVGID_00000182529896412389214040000000097604991623633039_);" d="M166.7,239.9c0,0-13.8,10.3-16.8,12.1
		c-3,1.8-14.5,8.2-27.4,9.5C111.1,261,33.2,240.6,18.8,321c-0.6,13.6-3.8,25.2,16.3,43c-10.7,74.3,42.7,74.9,42.7,74.9
		s-62.6-62.6,23.4-85.7c55.3-5.9,68.4,47.5,73.7,50.4c84.6,75.8,178.1-11.4,179.4-11.3c13.9,0.1,50.7,12.2,87.5-40.1
		c6.3-9,5-27.8,4.7-36.7c-44.2-17.8-47.7-72.2-47.7-72.2L387.5,186L166.7,239.9z M405.2,320.5c1.7,3.4,22.1,19.4,4.3,43.9
		c-10.4,17.2-35.5,19.7-41.4,15.1C383.9,359.4,385.8,360.4,405.2,320.5z"/>
	<path class="st2" d="M185.3,248.4c0,0-2.3,18.8-19.4,26.3c-3.8,2.8,27.9,9.6,27.9,9.6s-19.6,22-31.7,24.5s-25.3,3.4-25.3,3.4
		s-48.7,28.3-52.5,36.4c-1.3,2.6,32.1-11.1,50.4,3.3c23.8-2.3,45.4,6.9,45.4,6.9l-17.6,5.2c0,0,69.4,75.9,141.5,25.2
		c12.1-10.3,12.3-16.3,11.5-23.2c-2.9-24.1-18.6-121-18.6-121l-72.9-5.6L185.3,248.4z"/>
</g>
<g id="suit_x5F_bottom">
	
		<linearGradient id="SVGID_00000006708238299062081360000015853366331162660778_" gradientUnits="userSpaceOnUse" x1="289.2518" y1="346.1" x2="289.2518" y2="465.5585">
		<stop  offset="0" style="stop-color:#1F1F1F"/>
		<stop  offset="0.512" style="stop-color:#121212"/>
		<stop  offset="1" style="stop-color:#0C0C0C"/>
	</linearGradient>
	<path style="fill:url(#SVGID_00000006708238299062081360000015853366331162660778_);" d="M238.7,346.5l-4.8,26.5l-0.2,1.3
		l-9.5,71.4c0,0-3.2,19.9,11,19.8c13.5,0,19-14.8,19-14.8l19.2-65.9l34.3-1.5l18.1,72.9c0,0,5.7,10.5,16.1,9.2
		c10.6-1.4,12.6-16.5,12.6-16.5L344,376.2l-5.8-30.1L238.7,346.5z"/>
</g>
<g id="Suit_x5F_top">
	<polygon class="st4" points="208.6,347.2 211.7,353.1 242.5,337.4 238,329 	"/>
	<polygon class="st4" points="369,349.5 365.1,356.1 336.5,337.2 341.2,332 	"/>
	<path class="st5" d="M211.7,353.1c0,0,6.5,18,23.1,11.8s7.7-27.5,7.7-27.5L211.7,353.1z"/>
	<path class="st5" d="M342.2,363.9c16.4,7.6,22.9-7.7,22.9-7.7l-28.5-18.9C336.5,337.2,326.3,356.5,342.2,363.9z"/>
	<polygon points="238.7,346.5 259.8,258.6 318.8,259.5 338.2,346.1 	"/>
	<path class="st6" d="M257.2,330.7l72.3-2.5c0,0,3.1,18.5,3.1,18.4c0-0.1-76.2,2.2-76.2,2.2L257.2,330.7z"/>
	<polygon class="st7" points="313,260.9 293.2,321.7 266.8,260.2 	"/>
	<polygon class="st8" points="295,271.7 300.5,263.1 282,262.7 288.8,271.8 286.5,306 293.2,321.7 301.1,297.5 	"/>
	<polygon class="st9" points="231.2,373 241.9,311 240,302.7 227.9,310.2 238,329 208.6,347.2 188.1,303.1 258.2,258.3 263.6,259.5 
		255,374.4 	"/>
	<path class="st9" d="M387.5,305.8l-68.7-46.3l17.8,118.2l12.1-3.6l-7.4-42l27.7,17.5L387.5,305.8z M340.3,326.5l-3.7-24.6l12.4,8.8
		L340.3,326.5z"/>
	<g>
		<path d="M332,268.4c-1,1.9-2.1,4-2.3,6c0,0.4,0,1.3,0.4,1.5c1.1,0.6,2.8,0.4,4.1,0.7c1.6,0.3,3.1,0.9,4.6,1.8
			c0.6,0.4,1.5,1.1,1.6,1.9c0.6,4.6,0,12,0.1,16.7c-0.1,10.1-0.4,21.8-1.2,31.8c0,0.5-0.2,2.9-0.3,3.4c-0.1,0.4,0.2,0.8-1.1,1.1
			l-1-0.1c-1.3-0.5-0.9-0.8-1-1.2c0-0.7,0.2-2.7,0.2-3.4c0.7-12,1.5-28.7,2.1-40.8c0.1-2.4,0.3-4.9,0.1-7.2c0,0.1,0,0,0,0
			c-0.1-0.1-0.4-0.4-0.6-0.5c-1.8-1.2-3.8-1.8-5.9-2.1c-2.2-0.4-3.6-1.2-3.2-3.7c0.4-2.4,1.6-4.4,3-6.4
			C331.3,268,332,268.4,332,268.4L332,268.4z"/>
	</g>
	<polygon class="st10" points="374.3,336.8 343.3,321 340.6,325.9 372.1,342.1 	"/>
	<polygon class="st10" points="203,335.2 206.4,342.4 236.7,326.5 233.7,320.9 	"/>
	<polygon class="st7" points="321.6,297.1 326.9,328.4 346.1,324.7 342,296.4 	"/>
	<polygon class="st11" points="327.3,305.7 329.7,324.5 342.8,322.3 340.6,304.9 	"/>
	<polygon class="st12" points="326,299.5 326.8,303.3 340.1,302.6 339.6,299.1 	"/>
	<g>
		<path d="M253.7,261.2c0.2,0.3,0.3,0.7,0.4,1.1c0.6,2.1,1.1,4.5,1.5,6.6c0.4,2.4,0.9,5.8,0.8,7.7c0,0.8-0.3,1.2-0.4,1.6
			c-0.2,0.4-0.5,0.9-0.8,1.2c-0.3,0.4-0.9,0.5-1.3,0.7c-2.5,1.1-6.7,2.7-9.3,3.7c-1.8,0.7-3.9,1.4-5.3,2.2c-0.6,0.4-0.6,0.3-0.5,1
			c0.6,2.5,1.4,4.9,2.2,7.3c2,5.9,4.5,11.7,6.4,17.7c1.6,4.9,3.3,9.8,5.1,14.7c0,0,0.6,1.5,0.6,1.5c0.2,0.5,0.5,0.9-0.4,1.8l-1,0.4
			c-1.3-0.1-1.3-0.6-1.5-1.1l-0.6-1.5c-1.1-2.9-2.4-5.9-3.4-8.8c-2.7-8-5.5-15.7-8.2-23.7c-0.6-2-1.2-4-1.7-6.1
			c-0.3-1.4-0.9-2.6-0.1-4.1c0.5-0.9,1.2-1.4,1.7-1.7c1.3-0.7,2.4-1.2,3.7-1.6c2-0.7,4.3-1.4,6.3-2.1c1.2-0.4,4.8-1.5,5.8-1.9
			c0,0-0.1,0-0.1,0.1c0.1-0.1,0.2-0.2,0.3-0.2c0,0,0,0,0,0l0.3-0.5c0.2-0.3,0.3-0.5,0.3-0.5c0.1-1.2,0.1-2.5,0.1-3.8
			c-0.2-3.5-0.7-7-1.3-10.4c0,0-0.2-0.8-0.2-0.8L253.7,261.2L253.7,261.2z"/>
	</g>
	<g>
		<path class="st7" d="M279.4,329.4l-3.1,0.2c-0.4,0-0.7,0.3-0.7,0.7l0.6,18.7c0,0.4,0.3,0.7,0.7,0.7h3.2c0.4,0,0.7-0.3,0.7-0.7
			l-0.7-18.8C280.1,329.7,279.8,329.4,279.4,329.4z"/>
		<path class="st7" d="M310.8,328l-3.3-1.6c-0.2-0.1-0.5-0.2-0.7-0.2h-1.2c-0.9,0-1.6,0.7-1.6,1.6l0,1c0,0.9,0.7,1.6,1.6,1.6
			c0.9,0,1.6,0.7,1.6,1.6v1.8c0,0.9-0.7,1.6-1.6,1.6H302c0,0-1.4-0.1-1.4,2.5c0,2.6,1.4,2.5,1.4,2.5l3.6,0c0.9,0,1.6,0.7,1.6,1.6
			v2.6c0,0.5-0.3,1-0.7,1.2l-0.2,0.1c-0.5,0.3-0.8,0.8-0.8,1.4l0,0.2c0,0.5,0.3,1,0.7,1.3l0.4,0.2c0.4,0.2,0.9,0.3,1.3,0.2l2.7-0.8
			c1.5-0.4,2.4-1.8,2.4-3.3v-13.8C312.9,329.9,312.1,328.6,310.8,328z"/>
	</g>
</g>
<g id="head_00000166643305657736012050000010848424343878761136_">
	<g id="head">
		<path class="st5" d="M221.4,241.6c14.3,15,60.2,22.3,73.7,22.2c18.7-2.3,40.8-4.6,86.6-39.2c29.3-21.6,16-59,9.8-69.5
			c-6.1-10.4-52.9-58.3-101.5-58.3s-76.3,36-88.9,53.6C188.5,168,190.2,208.8,221.4,241.6z"/>
		<path class="st13" d="M262.2,173.9c-1.2,23.7-0.7,45-10.7,49.9c-11.3,1.6-11.8-29-13-48.7L262.2,173.9z"/>
		<path class="st13" d="M354.7,172.6c-1.2,23.7-2.8,48.2-11.3,49.7c-11.5-0.6-9.7-32.3-10.9-52L354.7,172.6z"/>
		<g>
			<g>
				<path class="st14" d="M292,241.2c5.3-0.9,10.6-1.3,16-1.7c1.3-0.1,1.3-2.1,0-2c-5.6,0.3-11.1,0.8-16.6,1.7
					C290.2,239.4,290.7,241.4,292,241.2L292,241.2z"/>
			</g>
		</g>
		<g>
			<g>
				<path class="st15" d="M288.4,202.7c0.4,1.3,1.7,2.3,3,2.2c0.3,0,0.5-0.1,0.7-0.3c0.2-0.2,0.3-0.5,0.3-0.7c0-0.3-0.1-0.5-0.3-0.7
					c-0.2-0.2-0.4-0.3-0.7-0.3c-0.1,0-0.2,0-0.3,0c0.1,0,0.2,0,0.3,0c-0.2,0-0.3-0.1-0.5-0.1c0.1,0,0.2,0.1,0.2,0.1
					c-0.2-0.1-0.3-0.2-0.5-0.3c0.1,0.1,0.1,0.1,0.2,0.2c-0.1-0.1-0.3-0.2-0.4-0.4c0.1,0.1,0.1,0.1,0.2,0.2c-0.1-0.1-0.2-0.3-0.3-0.4
					c0,0.1,0.1,0.2,0.1,0.2c0-0.1-0.1-0.1-0.1-0.2c-0.1-0.2-0.2-0.5-0.5-0.6c-0.2-0.1-0.5-0.2-0.8-0.1c-0.2,0.1-0.5,0.2-0.6,0.5
					C288.4,202.2,288.4,202.5,288.4,202.7L288.4,202.7z"/>
			</g>
		</g>
		<g>
			<g>
				<path class="st15" d="M281.7,216.9c0.3,0.2,0.7,0.4,1.1,0.5c0.7,0.2,1.6,0.2,2.2-0.2c0.2-0.1,0.4-0.4,0.5-0.6
					c0.1-0.2,0-0.6-0.1-0.8c-0.3-0.5-0.9-0.6-1.4-0.4c-0.1,0-0.1,0.1-0.2,0.1c0.1,0,0.2-0.1,0.2-0.1c-0.1,0.1-0.3,0.1-0.4,0.1
					c0.1,0,0.2,0,0.3,0c-0.2,0-0.4,0-0.7,0c0.1,0,0.2,0,0.3,0c-0.2,0-0.4-0.1-0.6-0.1c0.1,0,0.2,0.1,0.2,0.1
					c-0.2-0.1-0.4-0.2-0.5-0.3c-0.4-0.3-1.1-0.1-1.4,0.4C281.1,216,281.3,216.6,281.7,216.9L281.7,216.9z"/>
			</g>
		</g>
		<g>
			<g>
				<path class="st15" d="M325,212.2c0.1-0.4,0.1-0.7,0.1-1.1c0-0.2-0.1-0.4-0.2-0.5c0-0.1-0.1-0.2-0.2-0.3
					c-0.2-0.3-0.5-0.6-0.8-0.7c-0.3-0.2-0.7-0.3-1.1-0.2c-0.1,0-0.3,0-0.4,0.1c-0.1,0-0.2,0.1-0.3,0.2c-0.2,0.2-0.3,0.5-0.3,0.7
					c0,0.3,0.1,0.5,0.3,0.7c0.2,0.2,0.4,0.3,0.7,0.3c0.1,0,0.2,0,0.2,0c-0.1,0-0.2,0-0.3,0c0.1,0,0.2,0,0.3,0.1
					c-0.1,0-0.2-0.1-0.2-0.1c0.1,0,0.2,0.1,0.3,0.2c-0.1-0.1-0.1-0.1-0.2-0.2c0.1,0.1,0.2,0.2,0.2,0.2c-0.1-0.1-0.1-0.1-0.2-0.2
					c0.1,0.1,0.1,0.2,0.2,0.3c0-0.1-0.1-0.2-0.1-0.2c0,0.1,0.1,0.2,0.1,0.3c0-0.1,0-0.2,0-0.3c0,0.1,0,0.2,0,0.3c0-0.1,0-0.2,0-0.3
					c0,0.1,0,0.2-0.1,0.2c0,0.1,0,0.3,0,0.4c0,0.1,0,0.3,0.1,0.4c0.1,0.2,0.4,0.4,0.6,0.5c0.3,0.1,0.5,0,0.8-0.1
					c0.1-0.1,0.1-0.1,0.2-0.2C324.8,212.5,324.9,212.4,325,212.2L325,212.2z"/>
			</g>
		</g>
		<g>
			<g>
				<path class="st15" d="M316.1,206.7c-0.7-0.1-1.3-0.1-2,0.2c-0.5,0.2-0.9,0.7-1,1.2c-0.1,0.4-0.1,0.7,0,1.1
					c0.1,0.3,0.4,0.4,0.6,0.3c0.3-0.1,0.4-0.3,0.3-0.6c0,0,0-0.1,0-0.1c0,0,0,0,0-0.1c0,0.1,0,0.1,0,0c0-0.1,0-0.1,0-0.2
					c0,0,0-0.1,0-0.1c0-0.1,0,0.1,0,0c0-0.1,0-0.1,0-0.2c0,0,0-0.1,0-0.1c0,0.2,0,0.1,0,0c0-0.1,0.1-0.1,0.1-0.2c0-0.1-0.1,0.1,0,0
					c0,0,0,0,0.1-0.1c0,0,0,0,0.1-0.1c0.1-0.1,0,0,0,0c0.1,0,0.1-0.1,0.2-0.1c0,0,0.1,0,0.1,0c0.1-0.1-0.1,0,0,0
					c0.1,0,0.3-0.1,0.4-0.1c0.1,0-0.1,0,0,0c0,0,0.1,0,0.1,0c0.1,0,0.2,0,0.3,0c0.1,0,0.2,0,0.3,0c0,0,0.1,0,0.1,0c-0.1,0-0.1,0,0,0
					c0,0,0,0,0.1,0c0.3,0,0.6-0.1,0.6-0.3C316.5,207,316.4,206.7,316.1,206.7L316.1,206.7z"/>
			</g>
		</g>
		<g>
			<g>
				<path class="st15" d="M300.9,214.4c0.1,0,0.2,0,0.3-0.1c0,0,0.1,0,0.1,0c0.1,0,0.1,0,0,0c0,0,0,0,0,0c0,0,0.1,0,0.1,0
					c0.2,0,0.4,0,0.7-0.1c0.4,0,0.9-0.1,1.3-0.1c0.3,0,0.5-0.2,0.5-0.5c0-0.3-0.2-0.5-0.5-0.5c-0.9,0-1.9,0.1-2.8,0.2
					c-0.3,0-0.4,0.4-0.3,0.6C300.4,214.4,300.6,214.5,300.9,214.4L300.9,214.4z"/>
			</g>
		</g>
		<g>
			<g>
				<path class="st15" d="M318.6,222.8c0.1,0,0.2,0,0.3,0C318.9,222.8,318.8,222.8,318.6,222.8c0.2,0,0.3,0,0.4,0.1
					c-0.1,0-0.2-0.1-0.2-0.1c0.1,0,0.2,0.1,0.3,0.2c-0.1-0.1-0.1-0.1-0.2-0.2c0,0,0.1,0.1,0.1,0.1c0.2,0.2,0.4,0.3,0.7,0.3
					c0.1,0,0.3,0,0.4-0.1c0.1,0,0.2-0.1,0.3-0.2c0.2-0.2,0.3-0.4,0.3-0.7c0-0.1,0-0.2,0-0.3c0-0.2-0.1-0.3-0.3-0.4
					c-0.3-0.3-0.6-0.4-0.9-0.6c-0.2-0.1-0.4-0.1-0.5-0.1c-0.1,0-0.2,0-0.3,0c-0.1,0-0.3,0-0.4,0.1c-0.1,0-0.2,0.1-0.3,0.2
					c-0.1,0.1-0.2,0.2-0.2,0.3c-0.1,0.1-0.1,0.2-0.1,0.4c0,0.1,0,0.2,0,0.3c0,0.2,0.1,0.3,0.3,0.4c0.1,0.1,0.1,0.1,0.2,0.2
					C318.3,222.8,318.4,222.8,318.6,222.8L318.6,222.8z"/>
			</g>
		</g>
		<g>
			<g>
				<path class="st15" d="M274.8,213c0.1,0,0.1,0,0.2,0c0,0,0.2,0,0.1,0c0.1,0,0.2,0,0.4,0c0.2,0,0.5,0,0.7,0c0,0,0.2,0,0.1,0
					c0.1,0,0.1,0,0.2,0c0.1,0,0.2,0,0.4,0.1c0.2,0.1,0.5,0.1,0.7,0.2c0.2,0.1,0.6-0.1,0.6-0.3c0.1-0.3-0.1-0.5-0.3-0.6
					c-1-0.4-2.1-0.5-3.2-0.3c-0.3,0.1-0.4,0.4-0.3,0.6C274.3,212.9,274.6,213.1,274.8,213L274.8,213z"/>
			</g>
		</g>
		<g>
			<g>
				<path class="st15" d="M307.4,213.3c0.5,0,1.1,0,1.6,0c0.1,0,0.3-0.1,0.4-0.1c0.1-0.1,0.2-0.2,0.1-0.4c0-0.1,0-0.3-0.1-0.4
					c0,0-0.1-0.1-0.1-0.1c-0.1,0-0.2-0.1-0.3-0.1c-0.5-0.1-1.1-0.1-1.6,0c-0.1,0-0.3,0-0.4,0.1c-0.1,0.1-0.2,0.2-0.1,0.4
					C306.9,213.1,307.1,213.4,307.4,213.3L307.4,213.3z"/>
			</g>
		</g>
		<g>
			<g>
				<path class="st15" d="M261.6,217.4C261.6,217.4,261.6,217.4,261.6,217.4c0-0.1,0.1-0.2,0.1-0.2c0,0,0,0,0,0
					c0.1-0.1,0.1-0.1,0.2-0.2c0,0,0,0,0,0c0.1-0.1,0.1-0.1,0.2-0.2c0,0,0,0,0,0c0.1,0,0.2-0.1,0.2-0.1c0,0,0,0,0,0
					c0.1,0,0.2,0,0.3,0c0,0,0,0,0,0c0.1,0,0.2,0,0.3,0c0,0-0.1,0-0.1,0c0.1,0,0.2,0.1,0.2,0.1c-0.1-0.1-0.3-0.2-0.4-0.2
					c-0.2-0.1-0.3-0.2-0.5-0.3c0,0,0,0,0,0c0,0-0.3,0-0.3,0c0,0,0,0-0.1,0c0,0-0.1,0-0.1,0c0,0,0,0,0,0c0,0-0.2,0.1-0.2,0.1
					c0,0-0.2,0.2-0.2,0.2c-0.1,0.1-0.1,0.1-0.2,0.2c0,0,0,0.1-0.1,0.1c0.1-0.1,0,0.1-0.1,0.1c0,0,0,0.3,0,0.3c0,0.1,0,0.2,0,0.3
					c0,0,0.1,0.2,0.1,0.3c0.1,0.1,0.1,0.2,0.3,0.3c0.1,0.1,0.2,0.1,0.3,0.2c0.1,0,0.3,0,0.4,0c0.1,0,0.3,0,0.4-0.1
					c0.1-0.1,0.1-0.1,0.2-0.2c0.1-0.1,0.2-0.3,0.3-0.4c0-0.1,0-0.2,0-0.3c0-0.2,0-0.3-0.1-0.5c0,0,0,0,0,0c0,0.1,0.1,0.2,0.1,0.2
					c0,0,0,0,0,0c0,0.1,0,0.2,0,0.3c0,0,0,0,0,0c0,0.1,0,0.2,0,0.3c0,0,0,0,0,0c0,0.1-0.1,0.2-0.1,0.2c0,0,0,0,0,0
					c-0.1,0.1-0.1,0.1-0.2,0.2c0,0,0,0,0,0c-0.1,0.1-0.1,0.1-0.2,0.2c0,0,0,0,0,0c-0.1,0-0.2,0.1-0.2,0.1c0,0,0,0,0,0
					c-0.1,0-0.2,0-0.3,0c0,0,0,0,0,0c-0.1,0-0.2,0-0.3,0c0,0,0,0,0,0c-0.1,0-0.2-0.1-0.2-0.1c0,0,0.1,0.1,0.1,0.1
					c0.1,0,0.1,0.1,0.2,0.1c0.1,0,0.2,0.1,0.2,0.1c0,0,0.1,0,0.1,0.1c0.1,0,0.2,0.1,0.3,0.1c0,0,0.1,0,0.2,0c0,0,0.1,0,0.2,0
					c0.1,0,0.2,0,0.3,0c0.1,0,0.2-0.1,0.2-0.1c0.1,0,0.1-0.1,0.2-0.2c0.1-0.1,0.2-0.3,0.3-0.5c0-0.1,0-0.3,0-0.4
					c0-0.1,0-0.3-0.1-0.4c-0.1-0.1-0.1-0.2-0.3-0.3c-0.1-0.1-0.2-0.1-0.3-0.2c-0.1,0-0.2,0-0.3,0c-0.2,0-0.3,0-0.5,0.1
					c-0.1,0.1-0.1,0.1-0.2,0.2C261.7,217,261.7,217.2,261.6,217.4L261.6,217.4z"/>
			</g>
		</g>
	</g>
	<path class="st16" d="M152.5,233.9c-2-4.8-5-4.7-5.4-2.8c-0.7,4.3,0.2,7.8,2.3,17.4c-18.5-3-37.4-38.3-37.9-40.6
		c-0.5-2.3,0-9.2,0-9.2s22.3-94.8,29.8-112.1c7.4-17.3,15.6-26.1,21.6-31.4S212.3,12,225.5,10c13.2-1.9,54-4.6,64.1-3.8
		c10.1,0.7,64.3,10.1,68.6,13s34.1,22,34.1,22s15.1,14.2,16.8,16.8c1.7,2.6,53.9,129.6,51.5,147.8c-3.4,11.8-61.4,41.6-61.4,41.6
		s-47,2.2-46.5-7.4c-1.8-4.7,12.7-8.8,20.2-16c-14.3-3.1-23.4-5.3-23.5-9c2.3-4.9,20.4-13.8,28-25.1c0.6-1.5,6.9-27.8,4.3-28.5
		c-14.9-3.8-37.4-21-54.2-41.5c-6,36.7-34.4,45.7-34.4,45.7s11.7-26.9,2.7-44.5c-17.9,26.3-36.3,27.4-36.3,27.4l11.9-24.9L251.2,139
		c0,0,1.3,13.8,10,24c0.7,1.5-38.1,0.2-45.3-5.2c-6.8,3.8,2,42.5,2,42.5s22.9,18.2,34.4,23.4c-0.7,8.8-36.9,26.2-41.4,27.4
		c-2.1,0.6-13.7,0.6-19.1-0.5c-2.1-0.4-23.8-9.2-25.3-9.3C151.9,234.2,152.5,233.9,152.5,233.9z"/>
	<path class="st17" d="M243.2,108.8c0.5,7.1,8,30.2,8,30.2l20.1-15.6c0,0,5.2-4.5,4.1-16.6c0-9.7-7.7-35.8-7.7-35.8
		S245.9,99.2,243.2,108.8z"/>
	<path class="st17" d="M191.8,171.9c3.8,8.3,26.2,28.4,26.2,28.4s-8.9-38.7-2-42.5c3.5,2.6-14.2-10.9-22.5-12.1L191.8,171.9z"/>
	<path class="st17" d="M411.5,145.3c-2.3,3.7-5.9,8.5-10.2,11.2c-0.1,0.1-0.2,0.1-0.3,0.2c-2.7,1-5,1.5-7.9,0.9
		c-0.8-0.2-1.7,0.4-1.7,1.3c-0.9,11.5-6,21.3-5.6,22.3c1.8,4.8,20-13.9,26.4-21.2c0.2-0.2,0.3-0.4,0.3-0.6c0.9-3.7,1.4-9,1.6-13.2
		C414.3,144.7,412.3,144,411.5,145.3z"/>
	<path class="st17" d="M168.7,88.2c0,0,0.9-20,10.6-35.1s45.2-34.7,45.2-34.7l-26.6,33.2l-12.6,21L168.7,88.2z"/>
	<g id="Layer_6">
		<path id="XMLID_00000110438368078881105780000012658820875465501367_" class="st18" d="M205,80.9l3.5-3.8l16.1-10.3l52.2-21.7
			l29.6,6.5l30.2-1.4l19.7,8.1l39.4,30.3v-12c0,0-5.3-23-11.3-29.2c-16.2-5-37.7-22.1-37.7-22.1l-41.3-11.5l-29.8,4.3
			c0,0-17.7-4.6-21-4.3c-3.4,0.2-26.3,12.1-26.3,12.1s-18.7,24-32,27.4c-9.1,12-14.2,27.7-14.2,27.7H205z"/>
		<path class="st19" d="M388.9,55.2c-1.4-3.3-3-6.2-4.6-7.8c-7.1-2.2-15.2-6.7-22.1-11.1c3.1,2.3,14.6,9.6,17.8,12
			C383.3,50.6,388.9,55.2,388.9,55.2z"/>
		<path class="st19" d="M266.6,49.4c0,0-25.6-17.5-34.1-25.7c-4.3,2.2,0,0-4.3,2.2c15.4,13.2,34.2,25.3,34.2,25.3L266.6,49.4z"/>
		<path class="st19" d="M245.1,33.9c0,0,19.4,3.2,34.6,11.9c-1.4-0.3-3-0.6-3-0.6s-0.1,0-0.5,0.2c-17.7-7.4-24.8-8.6-28-9.1
			C245.1,33.9,245.1,33.9,245.1,33.9z"/>
		<path class="st19" d="M267.8,16.2C290,33.4,309,51.5,309,51.5l6.2-0.3c0,0-28.2-25.7-39.7-33.2C267.8,16.2,275.5,18.1,267.8,16.2z
			"/>
		<path class="st19" d="M318.2,17.3c8.3,8.1,22.4,34.6,22.4,34.6s0,0,1.7,0.7C328.8,26.1,320,17.8,320,17.8S322,18.4,318.2,17.3z"/>
		<path class="st19" d="M366.3,66c0,0-21.8-26.6-43.6-43.9c-4.1-4.2-6.4-5.3-6.4-5.3s3.7,1,10.6,3c12.7,9.4,42.2,42.1,42.2,42.1
			l-0.4,6L366.3,66z"/>
		<path class="st19" d="M200.8,51.5c16.5,3.4,33.1,11.5,33.1,11.5l5.1-2.1c0,0-15.1-8.1-33.1-12.6C200.8,51.5,205.8,48.3,200.8,51.5
			z"/>
		<path class="st19" d="M190.8,61.5c0,0,14.9-3.1,31.6-3.4c-5.1-1.9,0,0-5.1-1.9c-15.5,0.5-25.4,3.2-25.4,3.2L190.8,61.5z"/>
	</g>
	<path class="st7" d="M369.1,59.9c-2.2,17.4,0,30.7,0,30.7l4.8,25c0,0-2.2,22.5,2.4,35.5c4.4,2.8,36.8-13.8,36.8-13.8l-5.7,46.9
		l22.3,3.9l-4.3-50.4l19.2,49l11.8-20.5L438,134.8l25.6,4.9c0,0,2.1-23.4,2.1-31.9s-11-50.1-11-50.1s-9.8-3.5-36.5,39.7
		C403.6,91.7,390.8,60.4,369.1,59.9z"/>
	<path class="st7" d="M100.6,77.7l8.3,83.5l27.6-11.8l-11.4,26.6l23.8,26l0.2-24.5l7.7-25.7l16.3,46.1l14-22.3L176,143.9l36.5,4.6
		c0,0,1.1-26,0.7-33.7s-6.8-56.2-6.8-56.2s-20.2,6.8-52.9,46.8C107.1,65.8,100.6,77.7,100.6,77.7z"/>
	<path class="st4" d="M135.1,112.1c-1.7,0-11.6,9.3-10.8,10.1c0.8,0.7,18.3,1.6,18.3,0C142.6,120.5,136.8,112.1,135.1,112.1z"/>
	<path class="st4" d="M144.6,127.7c-0.6,2.6,7.6,14.3,14.8,15c3-0.2,6.6-9.4,6.6-9.4S145.2,125.1,144.6,127.7z"/>
	<path class="st4" d="M193.7,138.5c-13,0.1-31.5-5.9-31.5-5.9s1.7-9.4,12.4-13.9C180.6,118,195.6,137.5,193.7,138.5z"/>
	<path class="st4" d="M427.1,117.8c-1.4-0.5,10-16.3,13.9-15.8c2.6,2.1,2.8,4.5,1.4,8.4C440.9,113.6,428.4,118.3,427.1,117.8z"/>
	<path class="st4" d="M389.3,108.1c-0.4,4.9,2.2,8,5.3,11.2c0.1,0.1,0.1,0.1,0.2,0.2c7.3,5.9,14.4,4.6,15.4,6.3
		c1,1.6,0.4,7.1,1.4,7.6c1,0.4,3.8-0.3,4.3-1.3c0.5-1-0.3-13.2-1.1-14.2c-2.2-2.6-18.7-12.2-24.2-11.5
		C389.9,106.4,389.4,107.3,389.3,108.1z"/>
	<g id="Layer_5">
		<polygon class="st14" points="220.2,166.9 216.2,176.7 276,174.5 268.8,163 		"/>
		<polygon class="st14" points="327.1,163 320,173.3 372.9,175.4 370.4,165.1 		"/>
		<path class="st14" d="M225.5,169.2c0,1.3,0.1,1.5-1.2,2.2c-1.4,0.8-3.6,0.5-5.4,0.5c-3,0-15.2,1.5-15.2,0.6c0-1,6-2.9,9.1-3.2
			c1.2-0.1,9.8-0.9,11.2-0.5C225.5,169.2,225.5,169.2,225.5,169.2z"/>
		<path class="st14" d="M359.8,165.5c0,1.3-0.1,1.5,1.2,2.2c1.4,0.8,3.8,1.1,5.6,1.1c3,0,15,3.4,15,2.5c0-1-8.6-4.8-11.8-5.2
			c-1.2-0.1-7.2-0.5-8.5-0.1C359.8,166.4,359.8,165.5,359.8,165.5z"/>
	</g>
</g>
</svg>
